<svg xmlns="http://www.w3.org/2000/svg">
    <symbol id='vscode-icon' viewBox="0 0 48 48">
        <path fill="#29b6f6"
            d="M34.176 4.249c.188.092 5.688 2.716 8.374 3.998A2.55 2.55 0 0 1 44 10.546v26.86c0 .981-.559 1.874-1.443 2.299a7499 7499 0 0 1-7.948 3.826c-.248.118-.9.469-1.428.469-.678 0-1.133-.316-1.58-.73L34 35.711V5.715L31.746 4.58c.482-.471 1.15-.58 1.545-.58.362 0 .657.138.885.249" />
        <path fill="#006eb9"
            d="m9 33.896 25-19.023V5.83c0-1.299-1.662-1.808-2.337-1.184-.655.604-27.005 24.593-27.005 24.593a2 2 0 0 0 .107 3.032s1.324 1.232 1.803 1.574c.736.525 1.703.585 2.432.051" />
        <path fill="#0288d1"
            d="m9 14.104 25 19.054v8.771c0 1.198-1.42 2.193-2.399 1.341L4.658 18.761a2 2 0 0 1 .107-3.032s1.324-1.232 1.803-1.574c.736-.525 1.703-.585 2.432-.051" />
    </symbol>

    <symbol id='github-icon' viewBox="0 0 50 50">
        <path
            fill="currentColor"
            d="M17.791 46.836A2 2 0 0 0 19 45v-5.4q.002-.297.041-.61L19 39h-3.6c-1.5 0-2.8-.6-3.4-1.8-.7-1.3-1-3.5-2.8-4.7-.3-.2-.1-.5.5-.5.6.1 1.9.9 2.7 2 .9 1.1 1.8 2 3.4 2 2.487 0 3.82-.125 4.622-.555C21.356 34.056 22.649 33 24 33v-.025c-5.668-.182-9.289-2.066-10.975-4.975-3.665.042-6.856.405-8.677.707a22 22 0 0 1-.151-.987c1.797-.296 4.843-.647 8.345-.714a8 8 0 0 1-.291-.849c-3.511-.178-6.541-.039-8.187.097-.02-.332-.047-.663-.051-.999 1.649-.135 4.597-.27 8.018-.111a10 10 0 0 1-.13-1.543c0-1.7.6-3.5 1.7-5-.5-1.7-1.2-5.3.2-6.6 2.7 0 4.6 1.3 5.5 2.1C21 13.4 22.9 13 25 13s4 .4 5.6 1.1c.9-.8 2.8-2.1 5.5-2.1 1.5 1.4.7 5 .2 6.6 1.1 1.5 1.7 3.2 1.6 5 0 .484-.045.951-.11 1.409 3.499-.172 6.527-.034 8.204.102-.002.337-.033.666-.051.999-1.671-.138-4.775-.28-8.359-.089a8 8 0 0 1-.325.98c3.546.046 6.665.389 8.548.689q-.064.498-.151.987c-1.912-.306-5.171-.664-8.879-.682-1.665 2.878-5.22 4.755-10.777 4.974V33c2.6 0 5 3.9 5 6.6V45c0 .823.498 1.53 1.209 1.836C41.37 43.804 48 35.164 48 25 48 12.318 37.683 2 25 2S2 12.318 2 25c0 10.164 6.63 18.804 15.791 21.836" />
    </symbol>

    <symbol id='gitflic-icon' viewBox="0 0 36 43">
        <path
            fill="currentColor"
            d="M36 20.755c0-3.777-1.203-7.283-3.247-10.162a6.22 6.22 0 0 0 1.834-4.403c0-3.421-2.75-6.19-6.149-6.19-2.498 0-4.651 1.507-5.61 3.667A18.2 18.2 0 0 0 18 3.023c-1.665 0-3.28.22-4.811.644A6.14 6.14 0 0 0 7.579.008c-3.399 0-6.15 2.77-6.15 6.19 0 1.72.699 3.278 1.826 4.395A17.45 17.45 0 0 0 0 20.763c0 4.675 1.842 8.934 4.845 12.1l.017.018c.378.398.782.787 1.202 1.151l6.738 6.47 1.59-1.558L17.916 43l3.608-4.15 1.682 1.643 6.755-6.477q.605-.534 1.16-1.118l.034-.034C34.158 29.689 36 25.429 36 20.754Zm-25.814-5.91c-.278-.356-.353-.729-.27-1.042.085-.314.337-.593.758-.763.42-.169.976-.22 1.556-.059s1.043.475 1.32.839c.27.355.345.728.261 1.041s-.336.593-.748.762c-.421.17-.976.22-1.556.06-.58-.161-1.043-.475-1.321-.839Zm12.44 10.5c-.9.448-1.96.71-2.734 1.185-.269.16-.513.347-.731.576-.202.203-.883.974-.522 2.032.37 1.084 1.556 1.82 2.91 1.837.21 0 .379.178.37.39a.37.37 0 0 1-.378.373h-.008c-1.598-.026-3.003-.89-3.55-2.177-.521 1.338-1.951 2.244-3.583 2.261h-.008a.376.376 0 0 1-.379-.372.39.39 0 0 1 .37-.39c1.354-.017 2.524-.753 2.91-1.837.186-.517.169-1.262-.639-2.117a3.5 3.5 0 0 0-.74-.576c-.774-.474-1.968-.686-2.75-1.194-.732-.576-1.17-1.287-1.17-2.058 0-.042 0-.093.009-.135.118-1.846 2.708-3.32 5.888-3.32 3.12 0 5.669 1.415 5.88 3.21.008.076.016.16.016.245.008.78-.438 1.702-1.16 2.066Zm3.28-10.492c-.277.355-.731.677-1.32.838-.58.16-1.135.11-1.556-.06-.42-.169-.673-.448-.757-.761-.084-.314-.008-.686.269-1.042.278-.356.732-.677 1.32-.838.581-.161 1.136-.11 1.557.06.42.168.673.448.757.761" />
    </symbol>

    <symbol id='vk-icon' viewBox="0 0 50 50">
        <path
            fill="currentColor"
            d="M25 2C12.318 2 2 12.318 2 25s10.318 23 23 23 23-10.318 23-23S37.683 2 25 2m9.973 27.535c2.237 1.986 2.702 2.695 2.778 2.816.927 1.47-1.028 1.649-1.028 1.649h-4.12s-1.003.011-1.86-.557c-1.397-.915-2.86-2.689-3.888-2.381-.863.258-.855 1.424-.855 2.421 0 .357-.307.517-1 .517h-1.288c-2.257 0-4.706-.76-7.149-3.313-3.456-3.609-6.487-10.879-6.487-10.879s-.179-.366.016-.589c.221-.25.822-.218.822-.218L14.909 19s.376.071.646.261c.223.156.347.454.347.454s.671 2.216 1.526 3.629c1.67 2.758 2.447 2.828 3.014 2.531.828-.43.558-3.362.558-3.362s.037-1.259-.395-1.82c-.333-.434-.97-.665-1.248-.701-.225-.029.151-.423.63-.648.64-.285 1.511-.358 3.013-.344 1.169.011 1.506.081 1.962.186 1.379.318 1.038 1.157 1.038 4.103 0 .944-.13 2.271.582 2.711.307.19 1.359.422 3.231-2.618.889-1.442 1.596-3.834 1.596-3.834s.146-.263.373-.393c.232-.133.225-.13.543-.13S35.832 19 36.532 19s1.355-.008 1.468.402c.162.589-.516 2.607-2.234 4.797-2.823 3.594-3.136 3.258-.793 5.336" />
    </symbol>

    <symbol id='max-icon' viewBox="0 0 720 720">
        <path
            fill="currentColor"
            d="M350.4 9.6C141.8 20.5 4.1 184.1 12.8 390.4c3.8 90.3 40.1 168 48.7 253.7 2.2 22.2-4.2 49.6 21.4 59.3 31.5 11.9 79.8-8.1 106.2-26.4 9-6.1 17.6-13.2 24.2-22 27.3 18.1 53.2 35.6 85.7 43.4 143.1 34.3 299.9-44.2 369.6-170.3C799.6 291.2 622.5-4.6 350.4 9.6m-81 494.4c-11.3 8.8-22.2 20.8-34.7 27.7-18.1 9.7-23.7-.4-30.5-16.4-21.4-50.9-24-137.6-11.5-190.9 16.8-72.5 72.9-136.3 150-143.1 78-6.9 150.4 32.7 183.1 104.2 72.4 159.1-112.9 316.2-256.4 218.6Z" />
    </symbol>

    <symbol id="profile-icon" fill="currentColor" viewBox="0 0 16 16">
        <path
            d="M6 5a2 2 0 1 1 4 0 2 2 0 0 1-4 0m-.5 3h5A1.5 1.5 0 0 1 12 9.5c0 1.116-.459 2.01-1.212 2.615C10.047 12.71 9.053 13 8 13s-2.047-.29-2.788-.885C4.46 11.51 4 10.616 4 9.5A1.5 1.5 0 0 1 5.5 8M8 0a8 8 0 1 0 0 16A8 8 0 0 0 8 0M1 8a7 7 0 1 1 14 0A7 7 0 0 1 1 8" />
    </symbol>

    <symbol id="settings-icon" fill="currentColor" viewBox="0 0 16 16">
        <path
            d="M8 6a2 2 0 1 0-.001 3.999A2 2 0 0 0 8 6m0 3a1 1 0 1 1 0-2 1 1 0 0 1 0 2m6.565.715-1.286-1.087a.821.821 0 0 1 0-1.256l1.286-1.087a.41.41 0 0 0 .126-.441 7 7 0 0 0-1.472-2.536.42.42 0 0 0-.446-.112l-1.587.565a.8.8 0 0 1-.279.049.826.826 0 0 1-.813-.676l-.303-1.652a.41.41 0 0 0-.321-.329 7.135 7.135 0 0 0-2.939 0 .41.41 0 0 0-.321.329l-.302 1.652a.827.827 0 0 1-1.092.628l-1.587-.565a.42.42 0 0 0-.446.112A7 7 0 0 0 1.31 5.845a.41.41 0 0 0 .126.441l1.286 1.087a.821.821 0 0 1 0 1.256L1.436 9.716a.41.41 0 0 0-.126.441 7 7 0 0 0 1.473 2.536.42.42 0 0 0 .446.112l1.587-.565a.8.8 0 0 1 .279-.048c.392 0 .74.278.813.676l.302 1.652c.03.164.157.294.321.329q.722.153 1.47.153.749 0 1.469-.153a.41.41 0 0 0 .321-.329l.303-1.652a.827.827 0 0 1 1.092-.628l1.586.565a.415.415 0 0 0 .446-.112 7 7 0 0 0 1.472-2.536.41.41 0 0 0-.126-.441zm-1.837 2.011-1.207-.43a1.831 1.831 0 0 0-2.41 1.39l-.23 1.251a6.2 6.2 0 0 1-1.761-.001l-.229-1.251a1.825 1.825 0 0 0-2.411-1.39l-1.207.43a6 6 0 0 1-.879-1.511l.974-.823c.373-.315.6-.757.64-1.243a1.81 1.81 0 0 0-.64-1.54l-.974-.823a6 6 0 0 1 .879-1.511l1.207.43q.298.106.614.106a1.83 1.83 0 0 0 1.797-1.496l.229-1.251a6.2 6.2 0 0 1 1.761-.001l.229 1.251a1.825 1.825 0 0 0 2.411 1.39l1.207-.43q.553.692.879 1.511l-.973.823a1.8 1.8 0 0 0-.64 1.243 1.8 1.8 0 0 0 .641 1.54l.974.823a6 6 0 0 1-.879 1.511z" />
    </symbol>

    <symbol id='arrow-down-icon' fill="currentColor" viewBox="0 0 16 16">
        <path
            d="m3.146 5.854 4.5 4.5a.5.5 0 0 0 .707 0l4.5-4.5a.5.5 0 0 0-.707-.707L8 9.293 3.854 5.147a.5.5 0 0 0-.708.707" />
    </symbol>

    <symbol id='arrow-right-icon' fill="currentColor" viewBox="0 0 16 16">
        <path
            d="M6.146 3.146a.5.5 0 0 0 0 .707l4.146 4.146-4.146 4.146a.5.5 0 0 0 .707.707l4.5-4.5a.5.5 0 0 0 0-.707l-4.5-4.5a.5.5 0 0 0-.707 0" />
    </symbol>

    <symbol id='python-icon' viewBox="0 0 32 32">
        <path fill="#336791"
            d="M15.885 2.1c-7.1 0-6.651 3.07-6.651 3.07v3.19h6.752v1H6.545S2 8.8 2 16.005s4.013 6.912 4.013 6.912H8.33v-3.361s-.13-4.013 3.9-4.013h6.762s3.772.06 3.772-3.652V5.8s.572-3.712-6.842-3.712Zm-3.732 2.137a1.214 1.214 0 1 1-1.183 1.244v-.02a1.214 1.214 0 0 1 1.214-1.214Z" />
        <path fill="#fdbb30"
            d="M16.085 29.91c7.1 0 6.651-3.08 6.651-3.08v-3.18h-6.751v-1h9.47S30 23.158 30 15.995s-4.013-6.912-4.013-6.912H23.64V12.4s.13 4.013-3.9 4.013h-6.765S9.2 16.356 9.2 20.068V26.2s-.572 3.712 6.842 3.712h.04Zm3.732-2.147A1.214 1.214 0 1 1 21 26.519v.03a1.214 1.214 0 0 1-1.214 1.214z" />
    </symbol>

    <symbol id='type-script-icon' viewBox="0 0 32 32">
        <path
            d="M23.827 8.243a4.42 4.42 0 0 1 2.223 1.281 5.9 5.9 0 0 1 .852 1.143c.011.045-1.534 1.083-2.471 1.662-.034.023-.169-.124-.322-.35a2.01 2.01 0 0 0-1.67-1c-1.077-.074-1.771.49-1.766 1.433a1.3 1.3 0 0 0 .153.666c.237.49.677.784 2.059 1.383 2.544 1.095 3.636 1.817 4.31 2.843a5.16 5.16 0 0 1 .416 4.333 4.76 4.76 0 0 1-3.932 2.815 11 11 0 0 1-2.708-.028 6.53 6.53 0 0 1-3.616-1.884 6.3 6.3 0 0 1-.926-1.371 3 3 0 0 1 .327-.208c.158-.09.756-.434 1.32-.761l1.024-.6.214.312a4.8 4.8 0 0 0 1.35 1.292 3.3 3.3 0 0 0 3.458-.175 1.545 1.545 0 0 0 .2-1.974c-.276-.395-.84-.727-2.443-1.422a8.8 8.8 0 0 1-3.349-2.055 4.7 4.7 0 0 1-.976-1.777 7.1 7.1 0 0 1-.062-2.268 4.33 4.33 0 0 1 3.644-3.374 9 9 0 0 1 2.691.084m-8.343 1.483.011 1.454h-4.63v13.148H7.6V11.183H2.97V9.755a14 14 0 0 1 .04-1.466c.017-.023 2.832-.034 6.245-.028l6.211.017Z"
            style="fill:#007acc" />
    </symbol>

    <svg id='type-script-2-icon' stroke-width="0" viewBox="0 0 24 24">
        <path
            stroke="#2563eb" fill="#2563eb"
            d="M1.125 0C.502 0 0 .502 0 1.125v21.75C0 23.498.502 24 1.125 24h21.75c.623 0 1.125-.502 1.125-1.125V1.125C24 .502 23.498 0 22.875 0zm17.363 9.75q.918 0 1.627.111a6.4 6.4 0 0 1 1.306.34v2.458a4 4 0 0 0-.643-.361 5 5 0 0 0-.717-.26 5.5 5.5 0 0 0-1.426-.2q-.45 0-.819.086a2.1 2.1 0 0 0-.623.242q-.254.156-.393.374a.9.9 0 0 0-.14.49q0 .294.156.529.156.234.443.444c.287.21.423.276.696.41q.41.203.926.416.705.296 1.266.628.561.333.963.753.402.418.614.957.213.538.214 1.253 0 .986-.373 1.656a3.03 3.03 0 0 1-1.012 1.085 4.4 4.4 0 0 1-1.487.596q-.85.18-1.79.18a10 10 0 0 1-1.84-.164 5.5 5.5 0 0 1-1.512-.493v-2.63a5.03 5.03 0 0 0 3.237 1.2q.5 0 .872-.09.373-.09.623-.25.249-.162.373-.38a1.02 1.02 0 0 0-.074-1.089 2.1 2.1 0 0 0-.537-.5 5.6 5.6 0 0 0-.807-.444 28 28 0 0 0-1.007-.436q-1.377-.575-2.053-1.405t-.676-2.005q0-.92.369-1.582.368-.662 1.004-1.089a4.5 4.5 0 0 1 1.47-.629 7.5 7.5 0 0 1 1.77-.201m-15.113.188h9.563v2.166H9.506v9.646H6.789v-9.646H3.375z" />
    </svg>

    <symbol id='git-icon' viewBox="0 0 32 32">
        <path
            d="M29.472 14.753 17.247 2.528a1.8 1.8 0 0 0-2.55 0l-2.539 2.539 3.22 3.22a2.141 2.141 0 0 1 2.712 2.73l3.1 3.1a2.143 2.143 0 1 1-1.285 1.21l-2.895-2.895v7.617a2.141 2.141 0 1 1-1.764-.062V12.3a2.146 2.146 0 0 1-1.165-2.814l-3.17-3.172L2.528 14.7a1.8 1.8 0 0 0 0 2.551l12.225 12.221a1.8 1.8 0 0 0 2.55 0L29.472 17.3a1.8 1.8 0 0 0 0-2.551"
            style="fill:#dd4c35" />
        <path
            d="m12.158 5.067 3.22 3.22a2.141 2.141 0 0 1 2.712 2.73l3.1 3.1a2.143 2.143 0 1 1-1.285 1.21l-2.895-2.895v7.617a2.141 2.141 0 1 1-1.764-.062V12.3a2.146 2.146 0 0 1-1.165-2.814l-3.17-3.172"
            style="fill:#fff" />
    </symbol>

    <symbol id='markdown-icon' viewBox="0 0 32 32">
        <path d="M2.5 7.955h27v16.091h-27z" style="fill:none;stroke:#755838" />
        <path
            d="M5.909 20.636v-9.272h2.727l2.728 3.409 2.727-3.409h2.727v9.272h-2.727v-5.318l-2.727 3.409-2.728-3.409v5.318zM22.955 20.636l-4.091-4.5h2.727v-4.772h2.727v4.772h2.727z"
            style="fill:#755838" />
    </symbol>

    <symbol id='html-icon' viewBox="0 0 32 32">
        <path d="M5.902 27.201 3.655 2h24.69l-2.25 25.197L15.985 30z" style="fill:#e44f26" />
        <path d="m16 27.858 8.17-2.265 1.922-21.532H16z" style="fill:#f1662a" />
        <path
            d="M16 13.407h-4.09l-.282-3.165H16V7.151H8.25l.074.83.759 8.517H16zM16 21.434l-.014.004-3.442-.929-.22-2.465H9.221l.433 4.852 6.332 1.758.014-.004z"
            style="fill:#ebebeb" />
        <path
            d="M15.989 13.407v3.091h3.806l-.358 4.009-3.448.93v3.216l6.337-1.757.046-.522.726-8.137.076-.83h-7.185M15.989 7.151v3.091h7.466l.062-.694.141-1.567.074-.83z"
            style="fill:#fff" />
    </symbol>

    <symbol id='git-branch-icon' viewBox="0 0 24 24">
        <path
            fill="currentColor"
            d="M21.007 8.222A3.738 3.738 0 0 0 15.045 5.2a3.737 3.737 0 0 0 1.156 6.583 2.99 2.99 0 0 1-2.668 1.67h-2.99a4.46 4.46 0 0 0-2.989 1.165V7.4a3.737 3.737 0 1 0-1.494 0v9.117a3.776 3.776 0 1 0 1.816.099 2.99 2.99 0 0 1 2.668-1.667h2.99a4.48 4.48 0 0 0 4.223-3.039 3.736 3.736 0 0 0 3.25-3.687zM4.565 3.738a2.242 2.242 0 1 1 4.484 0 2.242 2.242 0 0 1-4.484 0m4.484 16.441a2.242 2.242 0 1 1-4.484 0 2.242 2.242 0 0 1 4.484 0m8.221-9.715a2.242 2.242 0 1 1 0-4.485 2.242 2.242 0 0 1 0 4.485" />
    </symbol>

    <symbol id='error-icon' viewBox="0 0 16 16">
        <path
            fill="currentColor"
            d="M8.6 1c1.6.1 3.1.9 4.2 2 1.3 1.4 2 3.1 2 5.1 0 1.6-.6 3.1-1.6 4.4-1 1.2-2.4 2.1-4 2.4s-3.2.1-4.6-.7-2.5-2-3.1-3.5S.8 7.5 1.3 6c.5-1.6 1.4-2.9 2.8-3.8C5.4 1.3 7 .9 8.6 1m.5 12.9c1.3-.3 2.5-1 3.4-2.1.8-1.1 1.3-2.4 1.2-3.8 0-1.6-.6-3.2-1.7-4.3-1-1-2.2-1.6-3.6-1.7-1.3-.1-2.7.2-3.8 1S2.7 4.9 2.3 6.3c-.4 1.3-.4 2.7.2 4q.9 1.95 2.7 3c1.2.7 2.6.9 3.9.6M7.9 7.5 10.3 5l.7.7-2.4 2.5 2.4 2.5-.7.7-2.4-2.5-2.4 2.5-.7-.7 2.4-2.5-2.4-2.5.7-.7z" />
    </symbol>

    <symbol id='warning-icon' viewBox="0 0 16 16">
        <path
            fill="currentColor"
            d="M7.56 1h.88l6.54 12.26-.44.74H1.44L1 13.26zM8 2.28 2.28 13H13.7zM8.625 12v-1h-1.25v1zm-1.25-2V6h1.25v4z" />
    </symbol>

    <symbol id='scss-icon' viewBox="0 0 32 32">
        <path
            d="M16.171 18.7c-.481.221-1.008.509-2.063 1.088-.4.225-.818.45-1.207.662-.027-.027-.055-.061-.082-.089-2.087-2.23-5.947-3.805-5.783-6.8.061-1.091.436-3.955 7.413-7.433 5.742-2.83 10.311-2.046 11.1-.307 1.134 2.479-2.449 7.092-8.379 7.761a4.47 4.47 0 0 1-3.751-.948c-.314-.341-.361-.361-.477-.293-.191.1-.068.409 0 .586a3.5 3.5 0 0 0 2.141 1.684 11.4 11.4 0 0 0 6.956-.689c3.594-1.391 6.4-5.258 5.578-8.5-.825-3.287-6.281-4.371-11.443-2.537a26 26 0 0 0-8.79 5.047c-2.844 2.66-3.294 4.972-3.11 5.94.662 3.437 5.4 5.674 7.3 7.331q-.148.08-.259.143c-.948.471-4.562 2.36-5.463 4.358-1.023 2.264.164 3.887.948 4.105a5.83 5.83 0 0 0 6.281-2.544 6.3 6.3 0 0 0 .559-5.8 5 5 0 0 1 .716-.477c.484-.286.945-.568 1.354-.786a10.5 10.5 0 0 1 4.475-.989c3.246.382 3.887 2.407 3.764 3.26a2.16 2.16 0 0 1-1.03 1.459c-.225.143-.3.191-.28.293.027.15.136.143.327.116a2.535 2.535 0 0 0 1.766-2.257c.1-2-1.807-4.194-5.183-4.174a7.8 7.8 0 0 0-2.946.587q-.225.093-.437.2Zm-4.825 7.839c-1.078 1.173-2.578 1.616-3.226 1.241-.7-.4-.423-2.135.9-3.376a17 17 0 0 1 2.53-1.889c.157-.1.389-.232.668-.4l.075-.041.164-.1a4.66 4.66 0 0 1-1.111 4.565"
            style="fill:#cd6799" />
    </symbol>

    <symbol id='vite-icon' viewBox="0 0 410 404">
        <path fill="#bd34fe"
            d="m399.641 59.525-183.998 329.02c-3.799 6.793-13.559 6.833-17.415.073L10.582 59.556C6.38 52.19 12.68 43.266 21.028 44.76l184.195 32.923c1.175.21 2.378.208 3.553-.006l180.343-32.87c8.32-1.517 14.649 7.337 10.522 14.719" />
        <path fill="#ffa800"
            d="M292.965 1.574 156.801 28.255a5 5 0 0 0-4.03 4.611l-8.376 141.464c-.197 3.332 2.863 5.918 6.115 5.168l37.91-8.749c3.547-.818 6.752 2.306 6.023 5.873l-11.263 55.153c-.758 3.712 2.727 6.886 6.352 5.785l23.415-7.114c3.63-1.102 7.118 2.081 6.35 5.796l-17.899 86.633c-1.12 5.419 6.088 8.374 9.094 3.728l2.008-3.103 110.954-221.428c1.858-3.707-1.346-7.935-5.418-7.15l-39.022 7.532c-3.667.707-6.787-2.708-5.752-6.296l25.469-88.291c1.036-3.594-2.095-7.012-5.766-6.293" />
    </symbol>

    <symbol id='fast-api-icon' viewBox="0 0 6.3499999 6.3499999">
        <path
            d="M3.175.534a2.64 2.632 0 0 0-2.64 2.632A2.64 2.632 0 0 0 3.174 5.8a2.64 2.632 0 0 0 2.64-2.633A2.64 2.632 0 0 0 3.176.534m-.182 1.192h1.661L2.986 2.899h1.14l-2.43 1.707.528-1.172.241-.535z"
            style="fill:#009485;fill-opacity:.980392;stroke:none;stroke-width:.0112167;stop-color:#000" />
        <path d="M0 0h6.35v6.35H0Z" style="fill:none;stroke-width:.264583" />
    </symbol>

    <symbol id='django-icon' viewBox="0 0 504.09 215.994">
        <path fill="#092e20"
            d="M504.09 187.994c0 15.464-12.536 28-28 28H28c-15.464 0-28-12.536-28-28V28C0 12.536 12.536 0 28 0h448.09c15.464 0 28 12.536 28 28z" />
        <g fill="#fff">
            <path
                d="M86.945 33.919h23.872v110.496c-12.246 2.325-21.237 3.255-31.002 3.255-29.142 0-44.333-13.174-44.333-38.443 0-24.336 16.122-40.147 41.078-40.147 3.875 0 6.82.311 10.386 1.239v-36.4zm0 55.62c-2.79-.929-5.115-1.239-8.06-1.239-12.091 0-19.067 7.441-19.067 20.46 0 12.713 6.666 19.688 18.912 19.688 2.634 0 4.805-.155 8.215-.618z" />
            <path
                d="M148.793 70.783v55.341c0 19.065-1.395 28.21-5.58 36.117-3.876 7.596-8.992 12.399-19.532 17.67l-22.167-10.541c10.541-4.96 15.656-9.297 18.911-15.966 3.411-6.819 4.497-14.727 4.497-35.498V70.783zm-23.871-36.737h23.871v24.493h-23.871zM163.212 76.209c10.542-4.961 20.617-7.13 31.623-7.13 12.246 0 20.306 3.255 23.872 9.611 2.014 3.564 2.634 8.214 2.634 18.137v48.517c-10.697 1.552-24.182 2.636-34.102 2.636-19.996 0-28.988-6.977-28.988-22.476 0-16.744 11.936-24.493 41.234-26.975v-5.271c0-4.339-2.17-5.888-8.216-5.888-8.835 0-18.756 2.479-28.058 7.285V76.209zm37.358 37.978c-15.812 1.552-20.927 4.031-20.927 10.231 0 4.65 2.946 6.821 9.456 6.821 3.566 0 6.82-.311 11.471-1.084zM232.968 74.505c14.105-3.722 25.731-5.426 37.512-5.426 12.246 0 21.082 2.788 26.354 8.216 4.96 5.113 6.509 10.693 6.509 22.632v46.813h-23.871v-45.884c0-9.145-3.1-12.557-11.625-12.557-3.255 0-6.2.311-11.007 1.706v56.734h-23.871V74.505zM312.623 159.761c8.372 4.339 16.742 6.354 25.577 6.354 15.655 0 22.321-6.354 22.321-21.546v-.467c-4.65 2.326-9.301 3.257-15.5 3.257-20.927 0-34.26-13.797-34.26-35.652 0-27.128 19.688-42.473 54.564-42.473 10.232 0 19.688 1.084 31.159 3.407l-8.174 17.222c-6.356-1.241-.509-.167-5.312-.632v2.48l.309 10.074.154 13.022c.155 3.253.155 6.51.311 9.764v6.512c0 20.462-1.705 30.073-6.82 37.977-7.441 11.627-20.307 17.362-38.598 17.362-9.301 0-17.36-1.396-25.732-4.651zm47.434-71.306h-2.48c-4.649-.155-10.074 1.084-13.796 3.409-5.734 3.257-8.681 9.146-8.681 17.518 0 11.937 5.892 18.756 16.432 18.756 3.255 0 5.891-.62 8.99-1.55v-8.215c0-2.79-.154-5.892-.154-9.146l-.154-11.006-.156-7.905v-1.861zM433.543 68.77c23.871 0 38.443 15.037 38.443 39.371 0 24.957-15.19 40.613-39.373 40.613-23.873 0-38.599-15.036-38.599-39.216.001-25.114 15.193-40.768 39.529-40.768m-.467 60.763c9.147 0 14.573-7.596 14.573-20.773 0-13.019-5.271-20.771-14.415-20.771-9.457 0-14.884 7.598-14.884 20.771.001 13.178 5.427 20.773 14.726 20.773" />
        </g>
    </symbol>

    <symbol id='postgre-sql-icon' viewBox="0 0 24 24">
        <path
            fill='#3b82f6'
            d="M23.56 14.723a.5.5 0 0 0-.057-.12q-.21-.395-1.007-.231c-1.654.34-2.294.13-2.526-.02 1.342-2.048 2.445-4.522 3.041-6.83.272-1.05.798-3.523.122-4.73a1.6 1.6 0 0 0-.15-.236C21.693.91 19.8.025 17.51.001c-1.495-.016-2.77.346-3.116.479a10 10 0 0 0-.516-.082 8 8 0 0 0-1.312-.127c-1.182-.019-2.203.264-3.05.84C8.66.79 4.729-.534 2.296 1.19.935 2.153.309 3.873.43 6.304c.041.818.507 3.334 1.243 5.744q.69 2.26 1.433 3.582.83 1.493 1.714 1.79c.448.148 1.133.143 1.858-.729a56 56 0 0 1 1.945-2.206c.435.235.906.362 1.39.377v.004a11 11 0 0 0-.247.305c-.339.43-.41.52-1.5.745-.31.064-1.134.233-1.146.811a.6.6 0 0 0 .091.327c.227.423.922.61 1.015.633 1.335.333 2.505.092 3.372-.679-.017 2.231.077 4.418.345 5.088.221.553.762 1.904 2.47 1.904q.375.001.829-.094c1.782-.382 2.556-1.17 2.855-2.906.15-.87.402-2.875.539-4.101.017-.07.036-.12.057-.136 0 0 .07-.048.427.03l.044.007.254.022.015.001c.847.039 1.911-.142 2.531-.43.644-.3 1.806-1.033 1.595-1.67M2.37 11.876c-.744-2.435-1.178-4.885-1.212-5.571-.109-2.172.417-3.683 1.562-4.493 1.837-1.299 4.84-.54 6.108-.13l-.01.01C6.795 3.734 6.843 7.226 6.85 7.44c0 .082.006.199.016.36.034.586.1 1.68-.074 2.918-.16 1.15.194 2.276.973 3.089q.12.126.252.237c-.347.371-1.1 1.193-1.903 2.158-.568.682-.96.551-1.088.508-.392-.13-.813-.587-1.239-1.322-.48-.839-.963-2.032-1.415-3.512m6.007 5.088a1.6 1.6 0 0 1-.432-.178c.089-.039.237-.09.483-.14 1.284-.265 1.482-.451 1.915-1 .099-.127.211-.27.367-.443a.4.4 0 0 0 .074-.13c.17-.151.272-.11.436-.042.156.065.308.26.37.475.03.102.062.295-.045.445-.904 1.266-2.222 1.25-3.168 1.013m2.094-3.988-.052.14c-.133.357-.257.689-.334 1.004-.667-.002-1.317-.288-1.81-.803-.628-.655-.913-1.566-.783-2.5.183-1.308.116-2.447.08-3.059l-.013-.22c.296-.262 1.666-.996 2.643-.772.446.102.718.406.83.928.585 2.704.078 3.83-.33 4.736a9 9 0 0 0-.23.546m7.364 4.572q-.024.266-.062.596l-.146.438a.4.4 0 0 0-.018.108c-.006.475-.054.649-.115.87-.064.229-.135.488-.18 1.057-.11 1.414-.878 2.227-2.417 2.556-1.515.325-1.784-.496-2.02-1.221a7 7 0 0 0-.078-.227c-.215-.586-.19-1.412-.157-2.555.016-.561-.025-1.901-.33-2.646q.006-.44.019-.892a.4.4 0 0 0-.016-.113 2 2 0 0 0-.044-.208c-.122-.428-.42-.786-.78-.935-.142-.059-.403-.167-.717-.087.067-.276.183-.587.309-.925l.053-.142c.06-.16.134-.325.213-.5.426-.948 1.01-2.246.376-5.178-.237-1.098-1.03-1.634-2.232-1.51-.72.075-1.38.366-1.709.532a6 6 0 0 0-.196.104c.092-1.106.439-3.174 1.736-4.482a4 4 0 0 1 .303-.276.35.35 0 0 0 .145-.064c.752-.57 1.695-.85 2.802-.833q.616.01 1.174.081c1.94.355 3.244 1.447 4.036 2.383.814.962 1.255 1.931 1.431 2.454-1.323-.134-2.223.127-2.68.78-.992 1.418.544 4.172 1.282 5.496.135.242.252.452.289.54.24.583.551.972.778 1.256.07.087.138.171.189.245-.4.116-1.12.383-1.055 1.717-.013.156-.043.447-.084.815-.046.208-.07.46-.1.766m.89-1.621c-.04-.832.27-.919.597-1.01l.135-.041a1 1 0 0 0 .134.103c.57.376 1.583.421 3.007.134-.202.177-.519.4-.953.601-.41.19-1.096.333-1.747.364-.72.034-1.086-.08-1.173-.151m.57-9.271c-.006.35-.054.669-.105 1.001-.055.358-.112.728-.127 1.177-.014.436.04.89.093 1.33.107.887.216 1.8-.207 2.701a4 4 0 0 1-.188-.385 8 8 0 0 0-.325-.617c-.616-1.104-2.057-3.69-1.32-4.744.38-.543 1.342-.566 2.179-.463m.228 7.013-.085-.107-.035-.044c.726-1.2.584-2.387.457-3.439-.052-.432-.1-.84-.088-1.222.013-.407.066-.755.118-1.092.064-.415.13-.844.111-1.35a.6.6 0 0 0 .012-.19c-.046-.486-.6-1.938-1.73-3.253a7.8 7.8 0 0 0-2.688-2.04A9.3 9.3 0 0 1 17.62.746c2.052.046 3.675.814 4.824 2.283a1 1 0 0 1 .067.1c.723 1.356-.276 6.275-2.987 10.54m-8.816-6.116c-.025.18-.31.423-.621.423a1 1 0 0 1-.081-.006.8.8 0 0 1-.506-.315c-.046-.06-.12-.178-.106-.285a.22.22 0 0 1 .093-.149c.118-.089.352-.122.61-.086.316.044.642.193.61.418m7.93-.411c.011.08-.049.2-.153.31a.72.72 0 0 1-.408.223 1 1 0 0 1-.075.005c-.293 0-.541-.234-.56-.371-.024-.177.264-.31.56-.352.298-.042.612.009.636.185" />
    </symbol>

    <symbol id='docker-icon' viewBox="0 0 640 512">
        <path
            fill='#60a5fa'
            d="M349.9 236.3h-66.1v-59.4h66.1zm0-204.3h-66.1v60.7h66.1zm78.2 144.8H362v59.4h66.1zm-156.3-72.1h-66.1v60.1h66.1zm78.1 0h-66.1v60.1h66.1zm276.8 100c-14.4-9.7-47.6-13.2-73.1-8.4-3.3-24-16.7-44.9-41.1-63.7l-14-9.3-9.3 14c-18.4 27.8-23.4 73.6-3.7 103.8-8.7 4.7-25.8 11.1-48.4 10.7H2.4c-8.7 50.8 5.8 116.8 44 162.1 37.1 43.9 92.7 66.2 165.4 66.2 157.4 0 273.9-72.5 328.4-204.2 21.4.4 67.6.1 91.3-45.2 1.5-2.5 6.6-13.2 8.5-17.1zm-511.1-27.9h-66v59.4h66.1v-59.4zm78.1 0h-66.1v59.4h66.1zm78.1 0h-66.1v59.4h66.1zm-78.1-72.1h-66.1v60.1h66.1z" />
    </symbol>

    <symbol id='nginx-icon' viewBox="0 0 32 32">
        <path
            d="M15.948 2h.065a10 10 0 0 1 .972.528l10.858 6.246a.79.79 0 0 1 .414.788c-.008 4.389 0 8.777-.005 13.164a.81.81 0 0 1-.356.507q-5.773 3.324-11.547 6.644a.59.59 0 0 1-.657.037q-5.78-3.314-11.549-6.64a.7.7 0 0 1-.4-.666V9.445a.69.69 0 0 1 .387-.67q5.422-3.118 10.844-6.24c.322-.184.638-.379.974-.535"
            style="fill:#019639" />
        <path
            d="M8.767 10.538v10.859a1.5 1.5 0 0 0 .427 1.087 1.65 1.65 0 0 0 2.06.206 1.56 1.56 0 0 0 .685-1.293c0-2.62-.005-5.24 0-7.86q3.583 4.29 7.181 8.568a2.83 2.83 0 0 0 2.6.782 1.56 1.56 0 0 0 1.251-1.371q.008-5.541 0-11.081a1.582 1.582 0 0 0-3.152 0c0 2.662-.016 5.321 0 7.982-2.346-2.766-4.663-5.556-7-8.332a2.82 2.82 0 0 0-2.649-1.052 1.58 1.58 0 0 0-1.403 1.505"
            style="fill:#fff" />
    </symbol>

    <symbol id='sqlalchemy-icon' viewBox="0 0 128 128">
        <path fill="#fff"
            d="M15.676 69.912c-.671-.107-2.39-.537-3.813-.926L9.27 68.26l1.33-2.444 1.329-2.444-1.074-1.33c-1.518-1.88-3.478-6.002-3.491-7.33-.014-3.103 4.014-7.601 8.956-10.018 3.397-1.665 6.096-1.705 9.48-.12l2.551 1.194.739-1.06c.402-.578.738-1.343.738-1.679s.336-.631.739-.631.738.107.738.228c0 .296-2.967 7.788-3.155 7.976-.081.08-.887-.295-1.8-.832-2.578-1.518-5.814-2.525-8.325-2.592-5.841-.148-7.869 5.56-3.746 10.554l1.45 1.76 3.961-3.21c4.445-3.585 4.955-3.666 8.42-1.275 3.893 2.685 3.96 6.767.2 11.037-3.33 3.8-6.753 4.848-12.635 3.867zm9.964-4.095c1.933-1.517 1.799-4.324-.296-6.553-2.632-2.793-3.45-2.672-8.083 1.195-4.606 3.84-4.633 3.693.873 5.452 3.638 1.181 5.921 1.141 7.506-.094m37.41 14.797c-1.317-.483-4.862-1.947-7.896-3.263-8.191-3.572-9.346-3.639-11.79-.671-.564.685-1.181 1.114-1.356.94-.524-.524 1.034-3.035 2.914-4.686 1.53-1.343 2.04-1.531 3.733-1.343 1.074.12 4.646 1.37 7.935 2.766 7.426 3.155 9.601 3.827 12.435 3.827 3.45 0 5.223-2.417 4.135-5.626-.268-.806-.188-1.075.35-1.075 1.006 0 1.517 3.76.792 5.922-.31.926-1.209 2.242-2.001 2.9-1.182.994-1.934 1.209-4.15 1.195-1.49-.013-3.786-.402-5.102-.886zm-19.135-11.48c-3.048-1.424-5.801-4.136-7.386-7.305-2.537-5.076-1.759-8.325 3.049-12.716 4.041-3.693 7.345-5.13 11.79-5.13 3.208 0 3.893.175 5.974 1.45 4.928 3.049 6.15 8.863 3.183 15.2-3.478 7.44-10.823 11.186-16.61 8.5zm10.205-3.532c2.282-1.128 3.854-6.338 3.209-10.662-.806-5.33-8.016-8.97-13.307-6.713-5.438 2.323-5.519 8.513-.174 14.085 3.732 3.908 6.942 4.928 10.272 3.29m10.353 4.512c0-.229.845-.631 1.893-.887l1.893-.47.403-6.82c.443-7.547.12-14.973-.698-15.966-.296-.35-1.195-.78-2.014-.967-3.33-.739-1.115-1.249 5.344-1.249s8.513.47 5.438 1.249c-2.645.658-2.659.698-2.659 11.467 0 5.975.215 10.474.524 11.051.43.806 1.074.98 3.545.98 5.102 0 6.861-1.208 8.245-5.68.416-1.342 1.49-1.1 1.114.256-.175.63-.456 2.55-.631 4.296l-.322 3.156H75.51c-6.07 0-11.037-.188-11.037-.416" />
        <path fill="#ca2727"
            d="M89.542 69.791c0-.402.39-.805 1.034-1.114.86-.403 1.423-1.249 3.464-5.237 3.236-6.31 8.339-17.147 8.822-18.772.376-1.235.457-1.302 1.853-1.463.806-.094 1.477-.148 1.49-.121.014.027 1.129 2.47 2.485 5.438 1.343 2.967 4.042 8.607 6.002 12.528 3.277 6.593 3.64 7.184 4.74 7.72.672.323 1.195.82 1.195 1.115 0 .47-.577.524-5.545.524-4.982 0-5.546-.054-5.546-.537 0-.322.43-.671 1.114-.9.632-.201 1.115-.577 1.115-.859 0-.269-.658-2.041-1.464-3.934l-1.463-3.451H97.746l-1.06 2.336c-1.988 4.378-2.028 5.412-.175 5.908.927.255 1.182.457 1.074.873-.12.484-.604.55-4.095.55-3.747.028-3.948 0-3.948-.604m18.181-10.863c.188-.335-3.988-9.453-4.377-9.547-.282-.08-4.606 8.836-4.606 9.507 0 .336 8.782.376 8.983.04" />
    </symbol>

    <symbol id='mail-icon' viewBox="0 0 1280.000000 1280.000000">
        <path
            fill="currentColor"
            d="M619.5 57C516.8 64.4 422.7 96.2 340 151.5c-36.2 24.2-53.9 39.3-100.1 85.5-38.8 38.7-49.9 51.1-68.9 76.1-21.8 28.9-38.7 56.4-55 89.4-28.6 57.8-48.4 122.2-57.4 186.1-7.4 52.4-8.5 110.9-3 163.4 16.1 156.3 87.1 277.8 207.9 356.2 90.1 58.5 193.3 89.2 325 96.8 21.9 1.3 79.2 1.3 101 0 73.5-4.3 131.5-15.7 190.5-37.7 9.6-3.6 19.8-7.6 22.5-9 3.3-1.7 10.3-7.8 20.3-17.7 18-17.7 19.3-19.4 20.3-25.7.7-4.6.1-6.3-15.6-44.6-21-51.1-20.1-49.3-22-49.3-.9 0-7.8 2.4-15.3 5.4-46.2 18.2-98.1 30-155.2 35.1-38.3 3.5-100 3-141.5-1.1-107-10.6-196.3-44.3-263-99.3-11.6-9.6-31.4-29-41.9-41.1-43.6-50.2-73.3-114.6-85.1-184.2-5-30-6-42.6-5.9-82.3 0-48.2 2.9-77.4 11.9-117.4 9.3-41.7 21.9-77.6 40.5-115.6 39.4-80.1 90-132.3 167.5-172.6 41.6-21.6 90.4-37.5 136.5-44.4 72.6-11 151-5 216 16.5 44.7 14.8 83.2 35.3 117.5 62.6 14.7 11.7 41.9 39.2 52.9 53.4 39.5 51 61.5 104.4 69.2 168 2.4 19.6 2.4 64.5 0 88.8-4.1 41.7-12 76-25.3 109.7-9.9 25.1-24.8 52.6-36.7 67.6-10.7 13.6-46.4 31.8-73.1 37.3-17.7 3.7-39.3 4.4-48.6 1.7-6.5-2-11.5-6.5-15-13.6-3.1-6.3-3.2-7.2-3.1-16.8.1-5.6.8-14.9 1.6-20.7 3.4-23.9 3.6-25 76.5-346 17.8-78.5 18.9-84 18.6-91.9-.2-5.5-.8-8.7-1.7-9.2-.7-.5-26.2-.9-56.7-.9h-55.5l-16.7 16.6-16.7 16.6-5.8-4.8c-8.4-6.8-25.3-17.6-36.4-23.3-18.3-9.4-37.6-15.3-61-18.8-16.5-2.5-57.2-2.4-72.8 0-47.8 7.6-89.8 26.7-130.7 59.3-12.5 10-68.4 65.4-79.6 78.9-32.4 39-54.2 78.5-72 130.3-15.3 44.9-22.6 88.1-23.6 140.2-.9 46.2 2.9 76.4 13.9 109.4 18.8 56.5 53.1 96.7 104.5 122.4 41.6 20.8 99.8 26.6 147.8 14.6 15.7-3.9 26.8-8 43-15.8 27.2-13.1 46.9-26.8 74.7-51.9 4.7-4.3 8.8-7.4 9.1-7 .2.4 1 2.6 1.7 4.8 4 12.7 16.2 30.9 27.3 41 13.1 12 34.3 24.2 50.2 29s24.6 5.9 46 5.8c55.4-.1 108.3-13.9 154.1-40.3 29-16.7 49.4-32.9 79.4-62.9 37.1-37.1 57.3-64.5 78.1-106.1 25.6-51.1 40.5-105.2 47.6-173 2.5-23.8 2.5-91.1 0-113-6.6-58.3-19.5-104.8-42.3-151.9-9.8-20.3-15.4-30.2-28.9-50.6-16.1-24.3-30-41.2-52.9-64.1-22.6-22.6-39.3-36.3-64.1-52.9-21.3-14.2-33.9-21.4-58-33.1C848.4 81.2 790 65.3 719 58.4c-19.2-1.8-81.1-2.7-99.5-1.4m-4.4 386.6c28.2 3.4 54.4 13.8 76.7 30.3 11 8.2 21.2 17.9 21.2 20.3 0 2.2-39.2 174.8-44 193.8-6.6 26.2-17.3 52.7-29.7 73.6-13.1 21.9-15.5 24.3-35.6 34.5-17.7 9-34.2 13.4-53.9 14.5-31.2 1.8-57.9-6.5-75.9-23.3-26.5-25-37.6-65.4-34-124.4 2.3-37.6 7.6-66.3 18.1-97.9 17.2-51.2 41.3-88.6 68.4-106.2 24.8-16 48.8-20.1 88.7-15.2" />
    </symbol>

    <symbol id="cross-icon" viewBox="0 0 32 32">
        <path fill="none" stroke="currentColor" stroke-linecap="round" stroke-linejoin="round"
            stroke-width="2"
            d="m7 7 18 18M7 25 25 7" />
    </symbol>

    <symbol id="check-mark-icon" viewBox="0 0 32 32">
        <path fill="none" stroke="currentColor" stroke-linecap="round" stroke-linejoin="round"
            stroke-width="2"
            d="m2 20 10 8L30 4" />
    </symbol>

    <symbol id="screen-full-icon" fill="currentColor" viewBox="0 0 16 16">
        <path
            d="M3.75 3a.75.75 0 0 0-.75.75V5.5a.5.5 0 0 1-1 0V3.75C2 2.784 2.784 2 3.75 2H5.5a.5.5 0 0 1 0 1zM10 2.5a.5.5 0 0 1 .5-.5h1.75c.966 0 1.75.784 1.75 1.75V5.5a.5.5 0 0 1-1 0V3.75a.75.75 0 0 0-.75-.75H10.5a.5.5 0 0 1-.5-.5M2.5 10a.5.5 0 0 1 .5.5v1.75c0 .414.336.75.75.75H5.5a.5.5 0 0 1 0 1H3.75A1.75 1.75 0 0 1 2 12.25V10.5a.5.5 0 0 1 .5-.5m11 0a.5.5 0 0 1 .5.5v1.75A1.75 1.75 0 0 1 12.25 14H10.5a.5.5 0 0 1 0-1h1.75a.75.75 0 0 0 .75-.75V10.5a.5.5 0 0 1 .5-.5" />
    </symbol>

    <symbol id="screen-normal-icon" fill="currentColor" viewBox="0 0 16 16">
        <path
            d="M11 4a1 1 0 0 0 1 1h1.5a.5.5 0 0 1 0 1H12a2 2 0 0 1-2-2V2.5a.5.5 0 0 1 1 0zm0 8a1 1 0 0 1 1-1h1.5a.5.5 0 0 0 0-1H12a2 2 0 0 0-2 2v1.5a.5.5 0 0 0 1 0zm-7-1a1 1 0 0 1 1 1v1.5a.5.5 0 0 0 1 0V12a2 2 0 0 0-2-2H2.5a.5.5 0 0 0 0 1zm1-7a1 1 0 0 1-1 1H2.5a.5.5 0 0 0 0 1H4a2 2 0 0 0 2-2V2.5a.5.5 0 0 0-1 0z" />
    </symbol>

    <symbol id="ellipsis-icon" fill="currentColor" viewBox="0 0 16 16">
        <path
            d="M5 8a1 1 0 1 1-2 0 1 1 0 0 1 2 0m4 0a1 1 0 1 1-2 0 1 1 0 0 1 2 0m3 1a1 1 0 1 0 0-2 1 1 0 0 0 0 2" />
    </symbol>

    <symbol id="add-icon" fill="currentColor" viewBox="0 0 16 16">
        <path
            d="M8 1.5a.5.5 0 0 0-1 0V7H1.5a.5.5 0 0 0 0 1H7v5.5a.5.5 0 0 0 1 0V8h5.5a.5.5 0 0 0 0-1H8z" />
    </symbol>

    <symbol id="remove-icon" fill="currentColor" viewBox="0 0 16 16">
        <path d="M1 7.5a.5.5 0 0 1 .5-.5h12a.5.5 0 0 1 0 1h-12a.5.5 0 0 1-.5-.5" />
    </symbol>

    <symbol id="terminal-icon" fill="currentColor" viewBox="0 0 24 24">
        <path
            d="M18.75 1.5H5.25A3.754 3.754 0 0 0 1.5 5.25v13.5a3.753 3.753 0 0 0 3.75 3.75h13.5a3.753 3.753 0 0 0 3.75-3.75V5.25a3.754 3.754 0 0 0-3.75-3.75M21 18.75c0 1.24-1.01 2.25-2.25 2.25H5.25C4.01 21 3 19.99 3 18.75V5.25C3 4.01 4.01 3 5.25 3h13.5C19.99 3 21 4.01 21 5.25zm-10.719-5.469-4.5 4.5a.753.753 0 0 1-1.062 0 .75.75 0 0 1 0-1.06l3.969-3.97-3.969-3.968a.75.75 0 0 1 1.06-1.061l4.5 4.5a.75.75 0 0 1 0 1.06zM19.5 17.25a.75.75 0 0 1-.75.75h-7.5a.75.75 0 0 1 0-1.5h7.5a.75.75 0 0 1 .75.75" />
    </symbol>

    <symbol id="bell-dot" fill="currentColor" viewBox="0 0 16 16">
        <path
            d="M13 9.901V7.873q-.481.125-1 .126v1.998q0 .097.036.186L12.762 12H3.238l.726-1.817A.5.5 0 0 0 4 9.997V5.999a4.004 4.004 0 0 1 4.518-3.967c.185-.327.416-.626.682-.887A5.006 5.006 0 0 0 3 5.999V9.9l-.964 2.413a.5.5 0 0 0 .464.686H6c0 1.108.892 2 2 2s2-.892 2-2h3.5a.5.5 0 0 0 .464-.686L13 9.9zM8 14c-.556 0-1-.444-1-1h2c0 .556-.444 1-1 1m7-10a3 3 0 1 1-6 0 3 3 0 0 1 6 0" />
    </symbol>

    <symbol id="broadcast-icon" fill="currentColor" viewBox="0 0 16 16">
        <path
            d="M5.525 5.525A3.48 3.48 0 0 0 4.5 8a3.48 3.48 0 0 0 1.025 2.475.5.5 0 0 1-.708.707A4.47 4.47 0 0 1 3.499 8c0-1.203.468-2.332 1.318-3.182a.5.5 0 0 1 .708.707m5.657-.707a.5.5 0 0 0-.707.707A3.48 3.48 0 0 1 11.5 8a3.48 3.48 0 0 1-1.025 2.475.5.5 0 0 0 .708.707A4.47 4.47 0 0 0 12.501 8a4.47 4.47 0 0 0-1.319-3.182M3.755 3.755a.5.5 0 0 0-.707-.707c-2.731 2.73-2.731 7.174 0 9.905a.5.5 0 1 0 .708-.707 6.01 6.01 0 0 1 0-8.49zm9.197-.707a.5.5 0 0 0-.707.707 6.01 6.01 0 0 1 0 8.49.5.5 0 0 0 .708.707c2.73-2.731 2.73-7.175 0-9.905zM8 7a1 1 0 1 0 0 2 1 1 0 0 0 0-2" />
    </symbol>

    <symbol id="copilot-icon" fill="currentColor" viewBox="0 0 50 50">
        <path
            d="M48.852 28.32c-.744-1.867-2.692-4.58-5.205-5.308-.334-.855-.827-2.105-1.288-3.029.078-.706.105-1.434.105-2.17 0-2.66-.564-4.992-2.263-6.73-.793-.81-1.777-1.433-2.944-1.9C34.461 6.91 30.393 5 24.938 5s-9.436 1.911-12.232 4.182c-1.168.468-2.152 1.09-2.945 1.902-1.699 1.736-2.262 4.07-2.262 6.729q-.007 1.089.104 2.17c-.461.924-.954 2.174-1.287 3.03-2.514.727-4.462 3.44-5.206 5.307q-.093.241-.11.498v5.616c.009.2.065.395.161.57 1.72 2.988 11.706 10.037 23.82 10.037s22.1-7.05 23.82-10.037c.126-.218.166-.468.166-.72v-5.318c0-.222-.034-.44-.115-.646M26.479 15.34c.003-1.537.339-2.537.876-3.152.682-.78 2.091-1.378 5.06-1.056 3.009.325 4.69 1.072 5.644 2.048.923.944 1.408 2.356 1.408 4.633 0 2.42-.349 3.849-1.116 4.719-.729.826-2.164 1.499-5.309 1.499-2.417 0-3.799-.787-4.682-1.873-.949-1.169-1.483-2.879-1.754-4.99a15 15 0 0 1-.127-1.785zm-14.575-2.16c.953-.976 2.635-1.723 5.643-2.048 2.97-.322 4.379.277 5.06 1.056.537.614.873 1.615.876 3.153v.042a14 14 0 0 1-.127 1.785c-.271 2.111-.805 3.822-1.753 4.99-.884 1.086-2.266 1.872-4.683 1.872-3.144 0-4.58-.672-5.309-1.498-.767-.87-1.115-2.3-1.115-4.72 0-2.277.485-3.689 1.408-4.632m29.061 24.489c-2.867 1.558-9.02 4.353-15.984 4.353s-13.117-2.795-15.984-4.353V24.514l.195-.21q.082.108.171.21c1.585 1.797 4.11 2.514 7.557 2.514 3.175 0 5.471-1.088 7.008-2.98q.392-.483.709-1.016h.688q.318.534.709 1.015c1.538 1.892 3.833 2.98 7.008 2.98 3.447 0 5.973-.716 7.557-2.514.105-.119.171-.21.171-.21l.195.21z" />
        <path
            d="M22.001 31.516a1.999 1.999 0 0 0-3.998 0v4.125a2 2 0 0 0 3.998-.127zM31.997 31.516a1.999 1.999 0 0 0-3.998 0v4.125a2 2 0 0 0 3.998-.127z" />
    </symbol>

    <symbol id="symbol-namespace-icon" fill="currentColor" viewBox="0 0 16 16">
        <path
            d="M5 2a2 2 0 0 0-2 2v2.005c0 .53-.008.794-.09.997-.062.156-.194.331-.634.55a.5.5 0 0 0 0 .895c.44.22.572.395.635.551.081.204.089.47.089 1.002v2a2 2 0 0 0 2 2 .5.5 0 0 0 0-1 1 1 0 0 1-1-1V9.941c0-.449 0-.91-.16-1.314A1.7 1.7 0 0 0 3.4 8c.196-.18.342-.384.44-.626C4 6.971 4 6.51 4 6.063V4a1 1 0 0 1 1-1 .5.5 0 0 0 0-1m6 0a2 2 0 0 1 2 2v2.005c0 .53.008.794.09.997.062.156.194.331.634.55a.5.5 0 0 1 0 .895c-.44.22-.572.395-.635.551-.081.204-.089.47-.089 1.002v2a2 2 0 0 1-2 2 .5.5 0 0 1 0-1 1 1 0 0 0 1-1V9.941c0-.449 0-.91.16-1.314.098-.243.243-.447.44-.627a1.7 1.7 0 0 1-.44-.626C12 6.971 12 6.51 12 6.063V4a1 1 0 0 0-1-1 .5.5 0 0 1 0-1" />
    </symbol>

    <symbol id="remote-icon" fill="currentColor" viewBox="0 0 16 16">
        <path
            d="M3.146 5.147a.5.5 0 0 1 .707 0l4 4a.5.5 0 0 1 0 .706l-4 4a.5.5 0 0 1-.707 0 .5.5 0 0 1 0-.707l3.646-3.645-3.646-3.647a.5.5 0 0 1 0-.707M12.146 1.147a.5.5 0 0 1 .707.707L9.207 5.501l3.647 3.646a.5.5 0 0 1-.708.707l-4-4a.5.5 0 0 1 0-.707z" />
    </symbol>
</svg>