<svg xmlns="http://www.w3.org/2000/svg" width="143" height="43" fill="none">
    <path fill="currentColor"
        d="M36 20.755c0-3.777-1.203-7.283-3.247-10.162a6.22 6.22 0 0 0 1.834-4.403c0-3.421-2.75-6.19-6.149-6.19-2.498 0-4.651 1.507-5.61 3.667A18.2 18.2 0 0 0 18 3.023c-1.665 0-3.28.22-4.811.644A6.14 6.14 0 0 0 7.579.008c-3.399 0-6.15 2.77-6.15 6.19 0 1.72.699 3.278 1.826 4.395A17.45 17.45 0 0 0 0 20.763c0 4.675 1.842 8.934 4.845 12.1l.017.018c.378.398.782.787 1.202 1.151l6.738 6.47 1.59-1.558L17.916 43l3.608-4.15 1.682 1.643 6.755-6.477q.605-.534 1.16-1.118l.034-.034C34.158 29.689 36 25.429 36 20.754Zm-25.814-5.91c-.278-.356-.353-.729-.27-1.042.085-.314.337-.593.758-.763.42-.169.976-.22 1.556-.059s1.043.475 1.32.839c.27.355.345.728.261 1.041s-.336.593-.748.762c-.421.17-.976.22-1.556.06-.58-.161-1.043-.475-1.321-.839Zm12.44 10.5c-.9.448-1.96.71-2.734 1.185-.269.16-.513.347-.731.576-.202.203-.883.974-.522 2.032.37 1.084 1.556 1.82 2.91 1.837.21 0 .379.178.37.39a.37.37 0 0 1-.378.373h-.008c-1.598-.026-3.003-.89-3.55-2.177-.521 1.338-1.951 2.244-3.583 2.261h-.008a.376.376 0 0 1-.379-.372.39.39 0 0 1 .37-.39c1.354-.017 2.524-.753 2.91-1.837.186-.517.169-1.262-.639-2.117a3.5 3.5 0 0 0-.74-.576c-.774-.474-1.968-.686-2.75-1.194-.732-.576-1.17-1.287-1.17-2.058 0-.042 0-.093.009-.135.118-1.846 2.708-3.32 5.888-3.32 3.12 0 5.669 1.415 5.88 3.21.008.076.016.16.016.245.008.78-.438 1.702-1.16 2.066Zm3.28-10.492c-.277.355-.731.677-1.32.838-.58.16-1.135.11-1.556-.06-.42-.169-.673-.448-.757-.761-.084-.314-.008-.686.269-1.042.278-.356.732-.677 1.32-.838.581-.161 1.136-.11 1.557.06.42.168.673.448.757.761" />
</svg>