<svg xmlns="http://www.w3.org/2000/svg" width="1706.667" height="1706.667" viewBox="0 0 1280 1280">
    <path
        fill="currentColor"
        d="M619.5 57C516.8 64.4 422.7 96.2 340 151.5c-36.2 24.2-53.9 39.3-100.1 85.5-38.8 38.7-49.9 51.1-68.9 76.1-21.8 28.9-38.7 56.4-55 89.4-28.6 57.8-48.4 122.2-57.4 186.1-7.4 52.4-8.5 110.9-3 163.4 16.1 156.3 87.1 277.8 207.9 356.2 90.1 58.5 193.3 89.2 325 96.8 21.9 1.3 79.2 1.3 101 0 73.5-4.3 131.5-15.7 190.5-37.7 9.6-3.6 19.8-7.6 22.5-9 3.3-1.7 10.3-7.8 20.3-17.7 18-17.7 19.3-19.4 20.3-25.7.7-4.6.1-6.3-15.6-44.6-21-51.1-20.1-49.3-22-49.3-.9 0-7.8 2.4-15.3 5.4-46.2 18.2-98.1 30-155.2 35.1-38.3 3.5-100 3-141.5-1.1-107-10.6-196.3-44.3-263-99.3-11.6-9.6-31.4-29-41.9-41.1-43.6-50.2-73.3-114.6-85.1-184.2-5-30-6-42.6-5.9-82.3 0-48.2 2.9-77.4 11.9-117.4 9.3-41.7 21.9-77.6 40.5-115.6 39.4-80.1 90-132.3 167.5-172.6 41.6-21.6 90.4-37.5 136.5-44.4 72.6-11 151-5 216 16.5 44.7 14.8 83.2 35.3 117.5 62.6 14.7 11.7 41.9 39.2 52.9 53.4 39.5 51 61.5 104.4 69.2 168 2.4 19.6 2.4 64.5 0 88.8-4.1 41.7-12 76-25.3 109.7-9.9 25.1-24.8 52.6-36.7 67.6-10.7 13.6-46.4 31.8-73.1 37.3-17.7 3.7-39.3 4.4-48.6 1.7-6.5-2-11.5-6.5-15-13.6-3.1-6.3-3.2-7.2-3.1-16.8.1-5.6.8-14.9 1.6-20.7 3.4-23.9 3.6-25 76.5-346 17.8-78.5 18.9-84 18.6-91.9-.2-5.5-.8-8.7-1.7-9.2-.7-.5-26.2-.9-56.7-.9h-55.5l-16.7 16.6-16.7 16.6-5.8-4.8c-8.4-6.8-25.3-17.6-36.4-23.3-18.3-9.4-37.6-15.3-61-18.8-16.5-2.5-57.2-2.4-72.8 0-47.8 7.6-89.8 26.7-130.7 59.3-12.5 10-68.4 65.4-79.6 78.9-32.4 39-54.2 78.5-72 130.3-15.3 44.9-22.6 88.1-23.6 140.2-.9 46.2 2.9 76.4 13.9 109.4 18.8 56.5 53.1 96.7 104.5 122.4 41.6 20.8 99.8 26.6 147.8 14.6 15.7-3.9 26.8-8 43-15.8 27.2-13.1 46.9-26.8 74.7-51.9 4.7-4.3 8.8-7.4 9.1-7 .2.4 1 2.6 1.7 4.8 4 12.7 16.2 30.9 27.3 41 13.1 12 34.3 24.2 50.2 29s24.6 5.9 46 5.8c55.4-.1 108.3-13.9 154.1-40.3 29-16.7 49.4-32.9 79.4-62.9 37.1-37.1 57.3-64.5 78.1-106.1 25.6-51.1 40.5-105.2 47.6-173 2.5-23.8 2.5-91.1 0-113-6.6-58.3-19.5-104.8-42.3-151.9-9.8-20.3-15.4-30.2-28.9-50.6-16.1-24.3-30-41.2-52.9-64.1-22.6-22.6-39.3-36.3-64.1-52.9-21.3-14.2-33.9-21.4-58-33.1C848.4 81.2 790 65.3 719 58.4c-19.2-1.8-81.1-2.7-99.5-1.4m-4.4 386.6c28.2 3.4 54.4 13.8 76.7 30.3 11 8.2 21.2 17.9 21.2 20.3 0 2.2-39.2 174.8-44 193.8-6.6 26.2-17.3 52.7-29.7 73.6-13.1 21.9-15.5 24.3-35.6 34.5-17.7 9-34.2 13.4-53.9 14.5-31.2 1.8-57.9-6.5-75.9-23.3-26.5-25-37.6-65.4-34-124.4 2.3-37.6 7.6-66.3 18.1-97.9 17.2-51.2 41.3-88.6 68.4-106.2 24.8-16 48.8-20.1 88.7-15.2" />
</svg>